<?xml version="1.0" encoding="UTF-8"?><svg xmlns="http://www.w3.org/2000/svg" xmlns:xlink="http://www.w3.org/1999/xlink" viewBox="0 0 413.1 453.18"><defs><style>.g{fill:url(#c);}.g,.h,.i,.j,.k{stroke-width:0px;}.l{fill:#888a85;stroke:#c27419;stroke-linejoin:round;}.l,.m{stroke-linecap:round;stroke-width:10.73px;}.h{fill:url(#b);}.i{fill:#fff;}.m{fill:none;stroke:url(#e);stroke-miterlimit:20;}.j{fill:#b55c04;}.k{fill:url(#d);isolation:isolate;opacity:.48;}</style><linearGradient id="b" x1="-182.94" y1="512.56" x2="-183.22" y2="521.61" gradientTransform="translate(4662.85 2843.81) scale(24.29 -4.74)" gradientUnits="userSpaceOnUse"><stop offset="0" stop-color="#fff"/><stop offset="1" stop-color="#babdb6"/></linearGradient><linearGradient id="c" x1="-192.77" y1="537.5" x2="-184.85" y2="537.5" gradientTransform="translate(2014.39 6156.65) scale(10.28 -11.03)" gradientUnits="userSpaceOnUse"><stop offset="0" stop-color="#fac778"/><stop offset="1" stop-color="#fbb03b"/></linearGradient><linearGradient id="d" x1="-197.41" y1="530.55" x2="-191.62" y2="530.55" gradientTransform="translate(-176.83 21578.27) scale(2.73 -40.33) skewX(27.94)" gradientUnits="userSpaceOnUse"><stop offset="0" stop-color="#000" stop-opacity=".07"/><stop offset="1" stop-color="#fff"/></linearGradient><linearGradient id="e" x1="-125.83" y1="529.07" x2="-201.95" y2="534.45" gradientTransform="translate(2141.01 5754.95) scale(11.01 -10.28)" gradientUnits="userSpaceOnUse"><stop offset="0" stop-color="#fff"/><stop offset="1" stop-color="#fff" stop-opacity="0"/></linearGradient></defs><g id="a"><path class="l" d="M22.46,38.21c.97-20.56,10.82-31.82,29.14-31.87l314.79-.97c2.65,0,6.1,2.15,6.37,4.83l34.98,353.77-14.12.61,6.75,69.19c.65,6.71-1.95,12.44-11.5,12.49l-329.64,1.56c-27.18.13-55.12-22.31-53.81-49.96L22.46,38.21h0Z"/><path class="h" d="M384.84,353.32l-313.29,1.34c-16.71,1.91-30.19,14.99-30.19,32.2s13.48,30.29,30.19,32.2l313.29,1.34v-.67c-17.77-.84-32.2-14.89-32.2-32.87s14.43-32.03,32.2-32.87v-.67h0Z"/><path class="g" d="M58.13,9.16c-18.32,0-28.31,10.83-29.18,30.71L11.17,384.99c-.99,33.04,19.61,51.83,40.92,57.22-45.62-17.5-39.58-96.52,17.44-96.19h331.66L365.64,13.78c-.28-2.58-3.73-4.62-6.37-4.62H58.13Z"/><path class="k" d="M57.69,21.54h21.47l-11.38,317.57h-21.47L57.69,21.54Z"/><path class="m" d="M60.15,14.76c-18.07,0-25.08,7.86-25.94,27.42l-13.94,320.83c10.02-17.25,26.19-23.43,52.09-23.43h321.49l-30.33-320.27c-.24-2.54-3.68-4.55-6.29-4.55H60.15Z"/></g><g id="f"><path class="j" d="M191.51,58.14l5.58,3.46,5.94,9.6v1.79l-5.94,9.6-5.58,3.46,5.58,3.46,7.56,10.94v8.37l-7.56,11.05-5.58,3.35-18.9,4.69h-43.02V53.45h44.28l17.64,4.69ZM180.53,79.12l5.4-3.46v-7.14l-5.4-3.46-10.26-2.23h-25.74v18.53h25.74l10.26-2.23ZM144.54,118.63h24.48l11.52-2.34,5.58-3.46,3.6-6.36v-3.68l-3.6-6.36-5.58-3.35-11.52-2.34h-24.48v27.9Z"/><path class="i" d="M296.45,58.14l5.58,3.46,5.94,9.6v1.79l-5.94,9.6-5.58,3.46,5.58,3.46,7.56,10.94v8.37l-7.56,11.05-5.58,3.35-18.9,4.69h-43.02V53.45h44.28l17.64,4.69ZM285.47,79.12l5.4-3.46v-7.14l-5.4-3.46-10.26-2.23h-25.74v18.53h25.74l10.26-2.23ZM249.47,118.63h24.48l11.52-2.34,5.58-3.46,3.6-6.36v-3.68l-3.6-6.36-5.58-3.35-11.52-2.34h-24.48v27.9Z"/></g></svg>