<svg width="369" height="397" viewBox="0 0 369 397" fill="none" xmlns="http://www.w3.org/2000/svg">
<path d="M0.219482 68.8254L302.928 3.29822C302.928 3.29822 314.719 0.60604 320.752 5.046C327.61 10.0899 326.989 17.9185 326.989 17.9185L325.707 432.921L61.8224 522.69L11.5128 482.863L0.220584 68.8198L0.219482 68.8254Z" fill="url(#paint0_linear_10_747)"/>
<path d="M11.6989 83.5822C23.1905 85.2187 304.368 15.8864 304.368 15.8864L340.337 34.4991L46.1584 114.758L11.6956 83.5767L11.6989 83.5822Z" fill="#FEEBD8"/>
<path d="M0.219353 68.8253L57.6424 98.3435L58.7995 527.804L0.181885 480.826L0.219353 68.8253Z" fill="url(#paint1_linear_10_747)"/>
<path d="M57.6424 98.3435L338.884 30.6587C338.884 30.6587 350.457 27.9786 357.914 32.7051C364.393 36.8144 364.35 46.8404 364.35 46.8404L363.971 412.991C363.971 412.991 364.474 425.826 357.657 434.084C351.091 442.045 338.754 445.782 338.754 445.782L58.8017 526.88L57.6313 98.3457L57.6424 98.3435Z" fill="url(#paint2_linear_10_747)"/>
<path d="M326.048 12.1671C326.048 12.1671 325.301 10.4271 324.506 9.02752C319.761 0.687586 308.904 2.68441 308.904 2.68441L17.8547 71.7357L39.6446 82.6312L58.7985 92.2065L328.293 27.7637C328.293 27.7637 343.634 24.0511 350.598 26.6386C360.243 30.2201 362.464 38.2052 362.464 38.2052C362.464 38.2052 361.966 37.0922 361.463 36.3263C355.475 27.2348 340.288 30.5 340.288 30.5L58.5615 100.426L0.232666 68.8253L286.411 2.09925C286.411 2.09925 296.646 -0.121283 301.852 -1.02272C320.763 -4.30558 326.063 12.1671 326.063 12.1671H326.048Z" fill="url(#paint3_linear_10_747)"/>
<path opacity="0.53" d="M58.5505 100.426V526.889L54.8445 524.09V98.7182L58.5505 100.426Z" fill="#FFFDEE"/>
<path opacity="0.1" d="M39.4561 82.4571L309.209 18.3857L41.8727 83.8004L39.4561 82.4571Z" fill="black"/>
<path opacity="0.1" d="M45.2273 85.4413L314.973 21.371L47.6429 86.7847L45.2273 85.4413Z" fill="black"/>
<path opacity="0.1" d="M50.9985 88.2272L320.747 24.1558L53.4141 89.5727L50.9985 88.2272Z" fill="black"/>
<defs>
<linearGradient id="paint0_linear_10_747" x1="377.456" y1="215.299" x2="232.157" y2="249.042" gradientUnits="userSpaceOnUse">
<stop stop-color="#FFA900"/>
<stop offset="1" stop-color="#CD962A"/>
</linearGradient>
<linearGradient id="paint1_linear_10_747" x1="29.4907" y1="159.934" x2="29.4907" y2="423.841" gradientUnits="userSpaceOnUse">
<stop stop-color="#FFA900"/>
<stop offset="1" stop-color="#DFE24B"/>
</linearGradient>
<linearGradient id="paint2_linear_10_747" x1="210.999" y1="178.051" x2="210.999" y2="439.468" gradientUnits="userSpaceOnUse">
<stop stop-color="#DF9606"/>
<stop offset="1" stop-color="#DBDE5F"/>
</linearGradient>
<linearGradient id="paint3_linear_10_747" x1="181.333" y1="96.3379" x2="181.333" y2="15.1216" gradientUnits="userSpaceOnUse">
<stop stop-color="#FFA900"/>
<stop offset="1" stop-color="#F2F47B"/>
</linearGradient>
</defs>
</svg>
